<mxfile host="app.diagrams.net" agent="Mozilla/5.0 (Windows NT 10.0; Win64; x64) AppleWebKit/537.36 (KHTML, like Gecko) Chrome/131.0.0.0 Safari/537.36" version="24.9.3">
  <diagram name="Ejercicio 4" id="0">
    <mxGraphModel dx="1120" dy="434" grid="1" gridSize="10" guides="1" tooltips="1" connect="1" arrows="1" fold="1" page="1" pageScale="1" pageWidth="850" pageHeight="1100" math="0" shadow="0">
      <root>
        <mxCell id="0" />
        <mxCell id="1" parent="0" />
        <mxCell id="2" value="" style="shape=rectangle;whiteSpace=wrap;html=1;fillColor=#D9EAD3;strokeColor=#6AA84F;" parent="1" vertex="1">
          <mxGeometry x="50" y="250" width="200" height="150" as="geometry" />
        </mxCell>
        <mxCell id="3" value="CLIENTES" style="text;html=1;stroke=none;fillColor=#E6E6E6;" parent="2" vertex="1">
          <mxGeometry width="200" height="30" as="geometry" />
        </mxCell>
        <mxCell id="4" value="PK Código_Cliente" style="text;html=1;fillColor=#FFFFFF;" parent="2" vertex="1">
          <mxGeometry y="30" width="200" height="30" as="geometry" />
        </mxCell>
        <mxCell id="5" value="Nombre" style="text;html=1;fillColor=#FFFFFF;" parent="2" vertex="1">
          <mxGeometry y="60" width="200" height="30" as="geometry" />
        </mxCell>
        <mxCell id="6" value="Apellidos" style="text;html=1;fillColor=#FFFFFF;" parent="2" vertex="1">
          <mxGeometry y="90" width="200" height="30" as="geometry" />
        </mxCell>
        <mxCell id="7" value="Dirección" style="text;html=1;fillColor=#FFFFFF;" parent="2" vertex="1">
          <mxGeometry y="120" width="200" height="30" as="geometry" />
        </mxCell>
        <mxCell id="8" value="Teléfono" style="text;html=1;fillColor=#FFFFFF;" parent="2" vertex="1">
          <mxGeometry y="150" width="200" height="30" as="geometry" />
        </mxCell>
        <mxCell id="9" value="" style="shape=rectangle;whiteSpace=wrap;html=1;fillColor=#D9EAD3;strokeColor=#6AA84F;" parent="1" vertex="1">
          <mxGeometry x="420" y="630" width="200" height="150" as="geometry" />
        </mxCell>
        <mxCell id="10" value="PRODUCTOS" style="text;html=1;stroke=none;fillColor=#E6E6E6;" parent="9" vertex="1">
          <mxGeometry width="200" height="30" as="geometry" />
        </mxCell>
        <mxCell id="11" value="PK Código_Producto" style="text;html=1;fillColor=#FFFFFF;" parent="9" vertex="1">
          <mxGeometry y="30" width="200" height="30" as="geometry" />
        </mxCell>
        <mxCell id="12" value="Descripción" style="text;html=1;fillColor=#FFFFFF;" parent="9" vertex="1">
          <mxGeometry y="60" width="200" height="30" as="geometry" />
        </mxCell>
        <mxCell id="13" value="Precio" style="text;html=1;fillColor=#FFFFFF;" parent="9" vertex="1">
          <mxGeometry y="90" width="200" height="30" as="geometry" />
        </mxCell>
        <mxCell id="14" value="Número_Existencias" style="text;html=1;fillColor=#FFFFFF;" parent="9" vertex="1">
          <mxGeometry y="120" width="200" height="30" as="geometry" />
        </mxCell>
        <mxCell id="15" value="" style="shape=rectangle;whiteSpace=wrap;html=1;fillColor=#D9EAD3;strokeColor=#6AA84F;" parent="1" vertex="1">
          <mxGeometry x="540" y="170" width="200" height="180" as="geometry" />
        </mxCell>
        <mxCell id="16" value="PROVEEDORES" style="text;html=1;stroke=none;fillColor=#E6E6E6;" parent="15" vertex="1">
          <mxGeometry width="200" height="30" as="geometry" />
        </mxCell>
        <mxCell id="17" value="PK Código_Proveedor" style="text;html=1;shadow=0;fillColor=#FFFFFF;" parent="15" vertex="1">
          <mxGeometry y="30" width="200" height="30" as="geometry" />
        </mxCell>
        <mxCell id="18" value="Nombre" style="text;html=1;shadow=0;fillColor=#FFFFFF;" parent="15" vertex="1">
          <mxGeometry y="60" width="200" height="30" as="geometry" />
        </mxCell>
        <mxCell id="19" value="Apellidos" style="text;html=1;shadow=0;fillColor=#FFFFFF;" parent="15" vertex="1">
          <mxGeometry y="90" width="200" height="30" as="geometry" />
        </mxCell>
        <mxCell id="20" value="Dirección" style="text;html=1;shadow=0;fillColor=#FFFFFF;" parent="15" vertex="1">
          <mxGeometry y="120" width="200" height="30" as="geometry" />
        </mxCell>
        <mxCell id="21" value="Provincia" style="text;html=1;shadow=0;fillColor=#FFFFFF;" parent="15" vertex="1">
          <mxGeometry y="150" width="200" height="30" as="geometry" />
        </mxCell>
        <mxCell id="22" value="Teléfono" style="text;html=1;shadow=0;fillColor=#FFFFFF;" parent="15" vertex="1">
          <mxGeometry y="180" width="200" height="30" as="geometry" />
        </mxCell>
        <mxCell id="23" value="" style="shape=rectangle;whiteSpace=wrap;html=1;fillColor=#D9EAD3;strokeColor=#6AA84F;shadow=1;" parent="1" vertex="1">
          <mxGeometry x="170" y="470" width="200" height="120" as="geometry" />
        </mxCell>
        <mxCell id="24" value="COMPRAS" style="text;html=1;stroke=none;fillColor=#E6E6E6;" parent="23" vertex="1">
          <mxGeometry width="200" height="30" as="geometry" />
        </mxCell>
        <mxCell id="25" value="PK ID_Compra" style="text;html=1;fillColor=#FFF2CC;" parent="23" vertex="1">
          <mxGeometry y="30" width="200" height="30" as="geometry" />
        </mxCell>
        <mxCell id="26" value="FK Código_Cliente" style="text;html=1;fillColor=#FFF2CC;" parent="23" vertex="1">
          <mxGeometry y="60" width="200" height="30" as="geometry" />
        </mxCell>
        <mxCell id="27" value="FK Código_Producto" style="text;html=1;fillColor=#FFF2CC;" parent="23" vertex="1">
          <mxGeometry y="90" width="200" height="30" as="geometry" />
        </mxCell>
        <mxCell id="28" value="Fecha_Compra" style="text;html=1;fillColor=#FFF2CC;strokeColor=none;" parent="23" vertex="1">
          <mxGeometry y="120" width="200" height="30" as="geometry" />
        </mxCell>
        <mxCell id="29" value="" style="shape=rectangle;whiteSpace=wrap;html=1;fillColor=#D9EAD3;strokeColor=#6AA84F;" parent="1" vertex="1">
          <mxGeometry x="530" y="440" width="200" height="90" as="geometry" />
        </mxCell>
        <mxCell id="30" value="SUMINISTROS" style="text;html=1;stroke=none;fillColor=#E6E6E6;" parent="29" vertex="1">
          <mxGeometry width="200" height="30" as="geometry" />
        </mxCell>
        <mxCell id="31" value="FK Código_Producto" style="text;html=1;fillColor=#FFF2CC;" parent="29" vertex="1">
          <mxGeometry y="30" width="200" height="30" as="geometry" />
        </mxCell>
        <mxCell id="32" value="FK Código_Proveedor" style="text;html=1;fillColor=#FFF2CC;" parent="29" vertex="1">
          <mxGeometry y="60" width="200" height="30" as="geometry" />
        </mxCell>
        <mxCell id="BPwkux90c159kShw1DQA-32" style="edgeStyle=orthogonalEdgeStyle;rounded=0;orthogonalLoop=1;jettySize=auto;html=1;entryX=0;entryY=0;entryDx=0;entryDy=0;" parent="1" source="6" target="27" edge="1">
          <mxGeometry relative="1" as="geometry">
            <mxPoint x="30" y="560" as="targetPoint" />
            <Array as="points">
              <mxPoint x="30" y="355" />
              <mxPoint x="30" y="560" />
            </Array>
          </mxGeometry>
        </mxCell>
        <mxCell id="BPwkux90c159kShw1DQA-37" style="edgeStyle=orthogonalEdgeStyle;rounded=0;orthogonalLoop=1;jettySize=auto;html=1;entryX=0;entryY=0.25;entryDx=0;entryDy=0;" parent="1" source="26" target="13" edge="1">
          <mxGeometry relative="1" as="geometry" />
        </mxCell>
        <mxCell id="BPwkux90c159kShw1DQA-38" style="edgeStyle=orthogonalEdgeStyle;rounded=0;orthogonalLoop=1;jettySize=auto;html=1;entryX=0;entryY=0;entryDx=0;entryDy=0;" parent="1" target="32" edge="1">
          <mxGeometry relative="1" as="geometry">
            <mxPoint x="490" y="500" as="targetPoint" />
            <mxPoint x="540" y="275" as="sourcePoint" />
            <Array as="points">
              <mxPoint x="491" y="275" />
              <mxPoint x="491" y="500" />
            </Array>
          </mxGeometry>
        </mxCell>
        <mxCell id="BPwkux90c159kShw1DQA-40" style="edgeStyle=orthogonalEdgeStyle;rounded=0;orthogonalLoop=1;jettySize=auto;html=1;entryX=1;entryY=0.25;entryDx=0;entryDy=0;exitX=1;exitY=0.25;exitDx=0;exitDy=0;" parent="1" source="32" target="13" edge="1">
          <mxGeometry relative="1" as="geometry">
            <Array as="points">
              <mxPoint x="730" y="500" />
              <mxPoint x="750" y="500" />
              <mxPoint x="750" y="728" />
            </Array>
          </mxGeometry>
        </mxCell>
      </root>
    </mxGraphModel>
  </diagram>
</mxfile>
